<svg height="800px" width="800px" viewBox="0 0 456 513" xml:space="preserve" fill="#fff" stroke="#fff" xmlns="http://www.w3.org/2000/svg">
  <path d="M455.4 150a43 43 0 0 0-21.5-37.3L249.5 6.3a43.2 43.2 0 0 0-43 0L22 112.8a42.6 42.6 0 0 0-18.3 21A42.8 42.8 0 0 0 .5 150v213a42.6 42.6 0 0 0 .2 3.6v.2l.2 2 .2.8v.1a43.2 43.2 0 0 0 1.1 5.2l.1.4a43.3 43.3 0 0 0 10 17.4 43.1 43.1 0 0 0 3 2.9l.6.4a43 43 0 0 0 6.2 4.3l184.4 106.4a43.1 43.1 0 0 0 43 0L434 400.2a41.7 41.7 0 0 0 6.1-4.3h.1l.4-.4c1-.8 2-1.7 2.8-2.6l.2-.2c4.7-5 8.2-11 10.2-17.4v-.4l.7-2.4.2-.8.3-2v-.1a48.5 48.5 0 0 0 .4-2.9v-.9l.2-2.9zm-18 214.6-.1.5-.1 1.2-.1.5-.2 1.3-.1.4-.4 1.3v.3a25.1 25.1 0 0 1-6 10.1l-1.7 1.7-.3.2a24.4 24.4 0 0 1-3.5 2.5L240.5 491a25 25 0 0 1-25 0L31.1 384.6a25.5 25.5 0 0 1-3.5-2.5l-.3-.2a25.1 25.1 0 0 1-4.7-5.5 25 25 0 0 1-3-6.3v-.2l-.3-1.4-.1-.4-.3-1.2v-.5l-.2-1.2V363l-.1-213A24.8 24.8 0 0 1 31 128.5L215.5 22a25 25 0 0 1 25 0l184.4 106.5a26 26 0 0 1 10.5 12 25 25 0 0 1 2 9.6v214.6z"/>
  <g style="fill:#fff;stroke:#fff">
    <path style="fill:#103b9b" d="M473.103 371.851a33.23 33.23 0 0 0 .91-4.087c.037-.236.076-.473.11-.711.076-.545.131-1.092.18-1.643.021-.225.047-.447.063-.674.052-.767.084-1.537.084-2.313v-.006l-.005-40.904v-.002l-.005-26.203v-.002l-.001-4.213-.004-25.574-.008-48.824-.005-26.204-.007-40.984c0-2.995-.406-5.931-1.16-8.75a34.096 34.096 0 0 0-1.52-4.435 34.079 34.079 0 0 0-11.925-14.74 33.792 33.792 0 0 0-2.421-1.553l-22.874-13.202-21.414-12.358-17.24-9.949-65.924-38.046-25.717-14.845-19.288-11.132-11.953-6.899a34.04 34.04 0 0 0-34.04.007l-11.872 6.857-19.288 11.14-25.717 14.854v-.001l-65.915 38.072-28.89 16.686-21.408 12.365-11.282 6.517a34.44 34.44 0 0 0-2.353 1.506 34.044 34.044 0 0 0-8.331 8.235 34.049 34.049 0 0 0-3.773 6.843 33.918 33.918 0 0 0-2.557 12.899l.006 40.912.005 26.204.012 73.738v4.88l.005 26.2v1.864l.002 12.617.004 26.497v.006c0 .773.033 1.539.084 2.304.016.224.042.446.061.669.048.548.105 1.096.18 1.638.033.236.072.471.108.706a35.487 35.487 0 0 0 .429 2.229c.14.615.298 1.222.471 1.825.033.113.061.227.095.34a34.04 34.04 0 0 0 3.94 8.589l.001.001.001.002a34.187 34.187 0 0 0 4.025 5.137c.051.052.099.106.148.158a34.585 34.585 0 0 0 2.231 2.113c.125.11.254.215.382.322a33.98 33.98 0 0 0 4.864 3.443l22.552 13.015 21.414 12.36 17.561 10.134 91.644 52.89 19.288 11.132 11.953 6.899a34.04 34.04 0 0 0 34.04-.007l11.872-6.857 19.288-11.14 25.717-14.853 55.554-32.086 10.363-5.985 26.36-15.225 21.408-12.365 13.813-7.978a33.62 33.62 0 0 0 4.798-3.39c.129-.107.259-.212.386-.322a34.097 34.097 0 0 0 2.236-2.11l.136-.146a34.024 34.024 0 0 0 8.019-13.765c.036-.106.064-.215.094-.322z" transform="translate(-27.916 .501)"/>
    <path d="m413.055 234.24-3.25.245-3.229.49-3.17.752-3.11.979-2.992 1.204-2.892 1.45-2.754 1.656-2.615 1.863-2.457 2.052-2.258 2.24-2.08 2.39-1.843 2.56-1.625 2.672-1.406 2.804-1.17 2.899-.91 2.974-.654 3.049-.397 3.067-.119 3.106.12 4.348.396 4.347.653 4.33.912 4.272 1.149 4.234 1.426 4.16 1.645 4.065 1.921 3.972 2.12 3.877 2.378 3.745 2.575 3.614 2.794 3.463 3.011 3.313 3.19 3.143 3.368 2.974 3.546 2.785 1.664 1.073 1.823.847 1.882.621 1.981.376 2.021.132 2.001-.132 1.981-.376 1.922-.621 1.783-.847 1.684-1.073 3.546-2.785 3.368-2.974 3.19-3.143 2.992-3.313 2.793-3.463 2.596-3.614 2.357-3.745 2.14-3.877 1.902-3.972 1.664-4.065 1.407-4.16 1.168-4.234.912-4.273.634-4.329.396-4.347.139-4.348-.139-3.106-.396-3.067-.654-3.05-.911-2.973-1.15-2.899-1.406-2.804-1.625-2.673-1.862-2.56-2.06-2.39-2.259-2.24-2.457-2.051-2.615-1.863-2.753-1.657-2.913-1.449-2.991-1.204-3.091-.979-3.17-.753-3.23-.49-3.268-.244zm1.644 9.599 2.813.113 2.774.357 2.734.622 2.675.847 2.555 1.072 2.477 1.299 2.318 1.506 2.16 1.694 1.98 1.9 1.784 2.033 1.585 2.202 1.386 2.334 1.13 2.447.891 2.522.634 2.597.396 2.635.14 2.673-.14 4.065-.396 4.066-.634 4.009-.911 3.99-1.15 3.915-1.406 3.858-1.644 3.764-1.882 3.652-2.12 3.557-2.338 3.425-2.536 3.275-2.774 3.124-2.951 2.955-3.13 2.805-3.31 2.597-.95.546-1.05.358-1.11.113-1.13-.113-1.05-.358-.95-.546-3.289-2.597-3.15-2.805-2.952-2.955-2.734-3.124-2.556-3.275-2.357-3.425-2.1-3.557-1.883-3.652-1.644-3.764-1.426-3.858-1.15-3.915-.891-3.99-.654-4.01-.376-4.065-.139-4.065.139-2.673.376-2.635.654-2.597.891-2.522 1.13-2.447 1.367-2.334 1.585-2.202 1.803-2.032 1.98-1.901 2.16-1.694 2.318-1.506 2.457-1.299 2.575-1.072 2.655-.847 2.754-.622 2.774-.357zm-45.666.038-8.38.357-8.322 1.016-8.222 1.75-8.004 2.41-7.786 3.049-7.449 3.651-7.093 4.31-6.656 4.856-6.201 5.402-5.667 5.91-5.15 6.324-4.498 6.719-3.883 7.096-3.21 7.359-2.536 7.66-1.842 7.773-1.07 7.943-.376 7.961.376 7.962 1.07 7.942 1.842 7.773 2.536 7.623 3.21 7.397 3.883 7.095 4.497 6.72 5.151 6.324 5.667 5.91 6.2 5.401 6.657 4.856 7.093 4.272 7.45 3.69 7.785 3.048 8.004 2.41 8.222 1.75 8.321 1.016 8.38.358 8.42-.358 8.322-1.016 8.222-1.75 8.004-2.41 7.786-3.049 7.449-3.689 7.093-4.272 6.656-4.856 6.202-5.402 5.666-5.91 5.111-6.323 4.537-6.72 3.883-7.095 3.21-7.397 2.516-7.623 1.823-7.773 1.11-7.942.376-7.962-.377-7.961-1.11-7.943-1.822-7.773-2.516-7.66-.218-.508-1.07 2.616-2.14 4.46-2.397 4.348-1.743 2.786v.018l1.248 6.663.673 6.776-11.213 2.371-4.656.847-3.764 3.331-4.18 3.275-2.635 1.675-2.972 1.43-3.21 1.017-3.269.621-3.348.226-3.368-.207-3.308-.64-3.11-1.016-3.032-1.412-2.655-1.712-1.743-1.356-3.864.32-15.077.678-15.116.057v-10.766l.376-10.747.694-10.766 7.647-.056-1.07-2.221-1.862-4.593-1.347-3.914-2.318.018.773-5.552v-.019l-1.03-4.78-.734-4.875-.436-4.894-.138-4.95.138-3.82.496-3.84.832-3.82 1.13-3.727 1.465-3.633 1.744-3.5 2.02-3.313 2.1-2.899zm44.477 9.598-2.337.264-2.299.508-2.218.772-2.1.997-1.982 1.242-1.803 1.43-1.624 1.638-1.407 1.788-1.169 1.939-.95 2.051-.654 2.146-.417 2.202-.158 2.24.158 2.22.417 2.203.653 2.146.951 2.051 1.17 1.939 1.406 1.806 1.624 1.62 1.803 1.448 1.981 1.205 2.1 1.016 2.22.772 2.298.508 2.337.264h2.358l2.338-.264 2.318-.508 2.199-.772 2.12-1.016 1.981-1.205 1.783-1.449 1.625-1.619 1.426-1.806 1.169-1.939.931-2.051.674-2.146.416-2.202.138-2.221-.138-2.24-.416-2.202-.674-2.146-.931-2.051-1.169-1.939-1.426-1.788-1.625-1.637-1.783-1.43-1.981-1.243-2.12-.997-2.2-.772-2.317-.508-2.338-.264zm-52.66 5.252-2.694 12.78-2.239 12.892-1.723 12.949-10.322-.734-10.243-1.092-10.243-1.45 3.923-6.267 4.458-5.89 4.972-5.553 5.41-5.1 5.844-4.706 6.26-4.178zm-22.427 1.336-6.419 5.477-5.923 5.966-5.33 6.437-4.814 6.813-4.16 7.19-12.363-2.823 4.359-5.44 4.834-5.062 5.23-4.63 5.686-4.216 5.983-3.765 6.32-3.237zm75.86 3.011 1.644.057 1.585.32 1.526.526 1.426.791 1.249.979 1.09 1.148.87 1.317.635 1.43.396 1.488.139 1.562-.139 1.524-.396 1.506-.634 1.43-.872 1.3-1.09 1.166-1.248.979-1.426.771-1.526.546-1.585.32-1.644.056-1.625-.188-1.565-.433-1.466-.658-1.347-.885-1.169-1.073-.99-1.242-.753-1.355-.515-1.468-.278-1.525v-1.562l.278-1.524.515-1.469.753-1.373.99-1.224 1.17-1.073 1.346-.884 1.466-.659 1.565-.433zm-120.971 35.629 13.947 3.294-2.674 7.98-1.942 8.13-1.169 8.263-.455 8.32-8.44-1.638-8.42-1.807.673-6.776 1.249-6.662 1.862-6.55 2.397-6.4zm25.16 5.496 11.512 1.731 11.55 1.28 11.61.866-.674 10.766-.376 10.803v10.785l-13.294-.828-13.254-1.28-13.155-1.75.178-6.607.693-6.587 1.229-6.531 1.763-6.418zm-34.115 38.132 8.578 1.806 8.658 1.638 1.03 6.644 1.447 6.587 1.961 6.494 2.397 6.324 2.873 6.173-8.52-1.901-8.459-2.146-3.07-5.985-2.576-6.154-1.981-6.362-1.466-6.493zm169.391 0-.871 6.625-1.467 6.493-1.98 6.362-2.576 6.154-3.071 5.985-11.174 2.805-11.253 2.296-11.372 1.9 3.289-7.866 2.635-8.094 2.02-8.262 1.367-8.357 11.53-1.675 11.492-2.014zm-140.486 5.27 13.037 1.637 13.016 1.223 13.115.772.674 10.804 1.01 10.784 1.387 10.728-9.965-.64-9.946-.997-9.906-1.318-3.586-6.154-3.05-6.437-2.497-6.644-1.922-6.813zm94.424 2.089-1.288 6.813-1.724 6.757-2.219 6.569-2.714 6.474-3.11 6.268-9.867.771-9.886.433-9.906.113-1.426-10.747-1.05-10.784-.694-10.804 14.641-.094 14.641-.621zM304.03 387.483l7.41 1.562 7.449 1.355 4.3 5.59 4.695 5.27 5.111 4.95 5.428 4.574-6.518-2.673-6.26-3.218-5.944-3.69-5.626-4.14-5.23-4.611zm130.045 0-4.814 4.969-5.23 4.61-5.627 4.142-5.944 3.65-6.26 3.22-6.518 2.71-6.736 2.183-6.895 1.6 4.933-5.082 4.597-5.364 4.26-5.628 3.863-5.834 10.183-1.393 10.144-1.732zm-99.02 5.232 11.095 1.054 11.075.659 1.704 8.884 1.921 8.808-7.092-3.971-6.736-4.612-6.221-5.157zm54.305 1.261-5.132 6.418-5.646 6.042-6.122 5.552-1.961-8.639-1.724-8.676 10.302-.189z" style="fill:#4a76cf;fill-opacity:1;stroke:none;stroke-width:0" transform="translate(-27.916 .501)" stroke="none"/>
    <g transform="translate(-27.916 .501)">
      <circle style="fill:#ffe000" cx="256.004" cy="147.507" r="18.083"/>
      <circle style="fill:#ffe000" cx="201.756" cy="162.034" r="18.083"/>
      <circle style="fill:#ffe000" cx="162.034" cy="201.756" r="18.083"/>
      <circle style="fill:#ffe000" cx="147.507" cy="256.004" r="18.083"/>
      <circle style="fill:#ffe000" cx="162.034" cy="310.253" r="18.083"/>
      <circle style="fill:#ffe000" cx="201.756" cy="349.962" r="18.083"/>
      <circle style="fill:#ffe000" cx="256.004" cy="364.501" r="18.083"/>
      <circle style="fill:#ffe000" cx="349.962" cy="201.756" r="18.083"/>
      <circle style="fill:#ffe000" cx="310.253" cy="162.034" r="18.083"/>
      <circle style="fill:#ffe000" cx="310.253" cy="349.962" r="18.083"/>
      <circle style="fill:#ffe000" cx="349.962" cy="310.253" r="18.083"/>
      <circle style="fill:#ffe000" cx="364.501" cy="256.004" r="18.083"/>
    </g>
    <path d="M455.54 150.004a42.979 42.979 0 0 0-1.467-11.08 43.142 43.142 0 0 0-1.924-5.613 43.069 43.069 0 0 0-15.096-18.652 42.318 42.318 0 0 0-3.062-1.96L249.583 6.268A43.156 43.156 0 0 0 228.048.501 43.142 43.142 0 0 0 206.5 6.277L22.126 112.766c-.945.546-1.89 1.15-2.979 1.904a42.992 42.992 0 0 0-10.546 10.42 43.128 43.128 0 0 0-4.775 8.658 42.817 42.817 0 0 0-3.234 16.335l.035 212.914c0 .921.034 1.875.105 2.917.017.235.039.47.061.702l.014.143c.06.694.134 1.386.231 2.096.034.24.071.477.108.717l.025.158a43.218 43.218 0 0 0 1.149 5.172l.112.392a43.084 43.084 0 0 0 4.985 10.873c.012.02.025.037.037.058a43.328 43.328 0 0 0 5.054 6.441l.194.205c.887.921 1.837 1.82 2.827 2.677l.481.405a42.916 42.916 0 0 0 6.16 4.35l184.41 106.429a43.166 43.166 0 0 0 21.535 5.767 43.138 43.138 0 0 0 21.546-5.776l184.375-106.49a41.731 41.731 0 0 0 2.98-1.903 42.469 42.469 0 0 0 3.098-2.38l.107-.089.38-.322a43.187 43.187 0 0 0 2.81-2.646l.193-.205a43.293 43.293 0 0 0 10.153-17.433l.113-.398a44.19 44.19 0 0 0 .608-2.342l.168-.77c.142-.682.27-1.37.38-2.067l.02-.123c.04-.253.08-.508.118-.776.094-.69.168-1.385.228-2.073l.014-.143c.025-.239.046-.477.063-.72.071-1.044.106-2 .106-2.93zm-18.109 214.594-.05.521a26.97 26.97 0 0 1-.129 1.191l-.083.534c-.064.403-.137.804-.227 1.227l-.089.41a23.68 23.68 0 0 1-.347 1.343l-.07.254a25.12 25.12 0 0 1-5.908 10.125l-.083.092a25.769 25.769 0 0 1-1.654 1.556l-.272.227a24.834 24.834 0 0 1-3.522 2.495l-184.374 106.49a25.029 25.029 0 0 1-12.502 3.351 25.035 25.035 0 0 1-12.495-3.347L31.215 384.643a25.475 25.475 0 0 1-1.778-1.146 24.55 24.55 0 0 1-1.783-1.383l-.288-.24a25.097 25.097 0 0 1-1.596-1.507 25.125 25.125 0 0 1-3.143-3.987 24.91 24.91 0 0 1-2.866-6.265l-.066-.237a26.174 26.174 0 0 1-.35-1.35l-.093-.434a23.092 23.092 0 0 1-.217-1.184l-.082-.523a26.16 26.16 0 0 1-.13-1.2l-.048-.496a24.448 24.448 0 0 1-.064-1.699l-.035-212.911c0-3.24.632-6.424 1.881-9.467a25.039 25.039 0 0 1 2.77-5.025 24.936 24.936 0 0 1 6.116-6.05c.67-.464 1.22-.82 1.73-1.112L215.546 21.935a25.036 25.036 0 0 1 12.504-3.351 25.02 25.02 0 0 1 12.495 3.347l184.407 106.427c.526.304 1.09.669 1.778 1.145a24.996 24.996 0 0 1 8.758 10.829 24.906 24.906 0 0 1 1.116 3.254c.567 2.122.854 4.282.855 6.419l.035 212.915a26.549 26.549 0 0 1-.063 1.678z"/>
  </g>
</svg>
